{
  "asset": {
    "generator": "Microsoft GLTF Exporter 2.8.3.2",
    "version": "2.0"
  },
  "accessors": [
    {
      "bufferView": 0,
      "componentType": 5123,
      "count": 37596,
      "type": "SCALAR"
    },
    {
      "bufferView": 1,
      "componentType": 5126,
      "count": 9150,
      "type": "VEC3",
      "max": [
        15.026939392089844,
        31.04576873779297,
        31.77300453186035
      ],
      "min": [
        -15.026939392089844,
        0,
        -31.77300453186035
      ]
    },
    {
      "bufferView": 2,
      "componentType": 5126,
      "count": 9150,
      "type": "VEC3"
    },
    {
      "bufferView": 3,
      "componentType": 5126,
      "count": 9150,
      "type": "VEC4"
    },
    {
      "bufferView": 4,
      "componentType": 5126,
      "count": 9150,
      "type": "VEC2"
    }
  ],
  "bufferViews": [
    {
      "buffer": 0,
      "byteOffset": 0,
      "byteLength": 75192,
      "target": 34963
    },
    {
      "buffer": 0,
      "byteOffset": 75192,
      "byteLength": 109800,
      "target": 34962
    },
    {
      "buffer": 0,
      "byteOffset": 184992,
      "byteLength": 109800,
      "target": 34962
    },
    {
      "buffer": 0,
      "byteOffset": 294792,
      "byteLength": 146400,
      "target": 34962
    },
    {
      "buffer": 0,
      "byteOffset": 441192,
      "byteLength": 73200,
      "target": 34962
    }
  ],
  "buffers": [
    {
      "uri": "data:application/octet-stream;base64,",
      "byteLength": 514392
    }
  ],
  "images": [
    {
      "uri": "data:image/png;base64,"
    },
    {
      "uri": "data:image/png;base64,"
    }
  ],
  "materials": [
    {
      "pbrMetallicRoughness": {},
      "doubleSided": true,
      "extensions": {
        "KHR_materials_pbrSpecularGlossiness": {
          "diffuseTexture": {
            "index": 0
          },
          "specularGlossinessTexture": {
            "index": 1
          }
        }
      }
    }
  ],
  "meshes": [
    {
      "primitives": [
        {
          "attributes": {
            "TANGENT": 3,
            "NORMAL": 2,
            "POSITION": 1,
            "TEXCOORD_0": 4
          },
          "indices": 0,
          "material": 0
        }
      ]
    }
  ],
  "nodes": [
    {
      "children": [
        1
      ],
      "scale": [
        0.009999999776482582,
        0.009999999776482582,
        0.009999999776482582
      ],
      "name": "RootNode.0"
    },
    {
      "mesh": 0,
      "name": "video_camera.1"
    }
  ],
  "samplers": [
    {
      "magFilter": 9729,
      "minFilter": 9985
    },
    {
      "magFilter": 9729,
      "minFilter": 9985
    }
  ],
  "scenes": [
    {
      "nodes": [
        0
      ]
    }
  ],
  "textures": [
    {
      "sampler": 0,
      "source": 0
    },
    {
      "sampler": 1,
      "source": 1
    }
  ],
  "scene": 0,
  "extensionsUsed": [
    "KHR_materials_pbrSpecularGlossiness"
  ],
  "extensionsRequired": [
    "KHR_materials_pbrSpecularGlossiness"
  ]
}